<svg width="512" height="512" viewBox="0 0 512 512" style="color:#7ede29" xmlns="http://www.w3.org/2000/svg" class="h-full w-full"><rect width="512" height="512" x="0" y="0" rx="30" fill="transparent" stroke="transparent" stroke-width="0" stroke-opacity="100%" paint-order="stroke"></rect><svg width="256px" height="256px" viewBox="0 0 32 32" fill="#7ede29" x="128" y="128" role="img" style="display:inline-block;vertical-align:middle" xmlns="http://www.w3.org/2000/svg"><g fill="#7ede29"><path fill="currentColor" d="M26 13a4.005 4.005 0 0 0 4-4V6h-3a3.979 3.979 0 0 0-2.747 1.106A6.004 6.004 0 0 0 19 4h-3v3a6.007 6.007 0 0 0 6 6h1v13H11v-5h1a4.005 4.005 0 0 0 4-4v-3h-3a3.979 3.979 0 0 0-2.747 1.106A6.004 6.004 0 0 0 5 12H2v3a6.007 6.007 0 0 0 6 6h1v5H2v2h28v-2h-5V13Zm-1-3a2.002 2.002 0 0 1 2-2h1v1a2.002 2.002 0 0 1-2 2h-1Zm-14 8a2.002 2.002 0 0 1 2-2h1v1a2.002 2.002 0 0 1-2 2h-1Zm-2 1H8a4.005 4.005 0 0 1-4-4v-1h1a4.005 4.005 0 0 1 4 4Zm14-8h-1a4.005 4.005 0 0 1-4-4V6h1a4.005 4.005 0 0 1 4 4Z"/></g></svg></svg>