<svg width="512" height="512" viewBox="0 0 512 512" style="color:#7ede29" xmlns="http://www.w3.org/2000/svg" class="h-full w-full"><rect width="512" height="512" x="0" y="0" rx="30" fill="transparent" stroke="transparent" stroke-width="0" stroke-opacity="100%" paint-order="stroke"></rect><svg width="256px" height="256px" viewBox="0 0 32 32" fill="#7ede29" x="128" y="128" role="img" style="display:inline-block;vertical-align:middle" xmlns="http://www.w3.org/2000/svg"><g fill="#7ede29"><path fill="currentColor" d="M28 13h2v2h-2zm-4.222-8.203l1.414-1.415l1.414 1.415l-1.414 1.414zM15 0h2v2h-2zM6.808 6.234L5.394 4.819l1.414-1.414L8.222 4.82zM2 13h2v2H2zm18 0h-3v-3h-2v3h-3v2h3v3h2v-3h3zm-7 17h6v2h-6zm-2-4h10v2H11z"/><path fill="currentColor" d="M16 4C10.5 4 6 8.5 6 14c0 4.4 2 6.3 3.5 7.6c1 .9 1.5 1.5 1.5 2.4h2c0-1.8-1.1-2.9-2.2-3.9C9.4 18.9 8 17.5 8 14c0-4.4 3.6-8 8-8s8 3.6 8 8c0 3.5-1.4 4.9-2.8 6.1c-1.1 1-2.2 2-2.2 3.9h2c0-.9.5-1.5 1.5-2.4C24 20.3 26 18.4 26 14c0-5.5-4.5-10-10-10z"/></g></svg></svg>