<svg width="512" height="512" viewBox="0 0 512 512" style="color:#7ede29" xmlns="http://www.w3.org/2000/svg" class="h-full w-full"><rect width="512" height="512" x="0" y="0" rx="30" fill="transparent" stroke="transparent" stroke-width="0" stroke-opacity="100%" paint-order="stroke"></rect><svg width="256px" height="256px" viewBox="0 0 24 24" fill="#7ede29" x="128" y="128" role="img" style="display:inline-block;vertical-align:middle" xmlns="http://www.w3.org/2000/svg"><g fill="#7ede29"><path fill="none" stroke="currentColor" stroke-linecap="round" stroke-linejoin="round" stroke-width="1.5" d="M15 19H9V8.6a.6.6 0 0 1 .6-.6h4.8a.6.6 0 0 1 .6.6V19Zm0-14H9m11.4 14H15v-3.9a.6.6 0 0 1 .6-.6h4.8a.6.6 0 0 1 .6.6v3.3a.6.6 0 0 1-.6.6ZM9 19v-5.9a.6.6 0 0 0-.6-.6H3.6a.6.6 0 0 0-.6.6v5.3a.6.6 0 0 0 .6.6H9Z"/></g></svg></svg>