<svg width="512" height="512" viewBox="0 0 512 512" style="color:currentColor" xmlns="http://www.w3.org/2000/svg" class="h-full w-full"><rect width="512" height="512" x="0" y="0" rx="30" fill="transparent" stroke="transparent" stroke-width="0" stroke-opacity="100%" paint-order="stroke"></rect><svg width="256px" height="256px" viewBox="0 0 14 14" fill="currentColor" x="128" y="128" role="img" style="display:inline-block;vertical-align:middle" xmlns="http://www.w3.org/2000/svg"><g fill="currentColor"><g fill="none" stroke="currentColor" stroke-linecap="round" stroke-linejoin="round"><path d="M11.51 5.38c2 2.82.47 6.05-.27 7.31a1.42 1.42 0 0 1-1 .66c-1.45.25-5.06.53-7-2.29C1.33 8.4 1.41 3.72 1.58 1.49A1.05 1.05 0 0 1 3 .55c2.15.62 6.63 2.17 8.51 4.83Z"/><path d="M4.77 4.45a52.26 52.26 0 0 1 6 8.73"/></g></g></svg></svg>